HIERARCHY
ROOT Hips
{
  OFFSET 0.0 0.0 0.0
  CHANNELS 6 XPOSITION YPOSITION ZPOSITION ZROTATION XROTATION YROTATION 
  JOINT Spine
  {
    OFFSET 0.0 0.118905 0.0
    CHANNELS 3 ZROTATION XROTATION YROTATION 
    JOINT Head
    {
      OFFSET 0.0 0.3439156 0.00139004
      CHANNELS 3 ZROTATION XROTATION YROTATION 
      End Site
      {
        OFFSET -0.0029 0.127742 0.0251395
      }
    }
    JOINT RightArm
    {
      OFFSET -0.192727 0.25291768 0.00229786
      CHANNELS 3 ZROTATION XROTATION YROTATION 
      JOINT RightForeArm
      {
        OFFSET -0.26364 0.00099144 -0.0142434
        CHANNELS 3 ZROTATION XROTATION YROTATION 
        JOINT RightHand
        {
          OFFSET -0.220324 0.00085362 0.0102216
          CHANNELS 3 ZROTATION XROTATION YROTATION 
          End Site
          {
            OFFSET -0.133284 -0.006 0.0150291
          }
        }
      }
    }
    JOINT LeftArm
    {
      OFFSET 0.192727 0.2529176801 0.00229786
      CHANNELS 3 ZROTATION XROTATION YROTATION 
      JOINT LeftForeArm
      {
        OFFSET 0.262597 0.00099144 -0.0142434
        CHANNELS 3 ZROTATION XROTATION YROTATION 
        JOINT LeftHand
        {
          OFFSET 0.220902 0.00085362 0.0102216
          CHANNELS 3 ZROTATION XROTATION YROTATION 
          End Site
          {
            OFFSET 0.13419 -0.006 0.0150291
          }
        }
      }
    }
  }
  JOINT RightUpLeg
  {
    OFFSET -0.089458 -0.0866707 0.00101652
    CHANNELS 3 ZROTATION XROTATION YROTATION 
    JOINT RightLeg
    {
      OFFSET 0.0 -0.444227 0.013727
      CHANNELS 3 ZROTATION XROTATION YROTATION 
      JOINT RightFoot
      {
        OFFSET 0.00253549 -0.420924 -0.0146059
        CHANNELS 3 ZROTATION XROTATION YROTATION 
        End Site
        {
          OFFSET 0.0004 -0.0441509 0.084991
        }
      }
    }
  }
  JOINT LeftUpLeg
  {
    OFFSET 0.089458 -0.0866707 0.00101652
    CHANNELS 3 ZROTATION XROTATION YROTATION 
    JOINT LeftLeg
    {
      OFFSET 0.0 -0.444227 0.013727
      CHANNELS 3 ZROTATION XROTATION YROTATION 
      JOINT LeftFoot
      {
        OFFSET -0.00253549 -0.420924 -0.0146059
        CHANNELS 3 ZROTATION XROTATION YROTATION 
        End Site
        {
          OFFSET -0.0004 -0.0441509 0.084991
        }
      }
    }
  }
}
MOTION
Frames: 10
Frame Time: 0.033333
1.95769 0.989769479321 0.039193 -4.11275998891 -0.490682977769 -91.3519974695 0.45458697547 8.74931010979 -0.0634835000656 -0.560841667067 -6.30738984235 -5.20547883865 79.8202612447 -20.7520561798 9.6113269406 8.2039801225 41.0901994807 6.84979992378 -8.63111966262 9.56451965422 -0.629782981867 -73.5441575108 -10.7971792617 -2.1579030725 -4.09030019248 36.1186004065 -14.7956001763 5.82328012125 9.61818957317 -0.917487998707 -0.556324991035 3.08775990347 -4.05542012394 -0.258608997945 10.5633998156 -8.23215977547 3.12996855155 -36.4995029811 -0.0564163086675 -0.982472019296 2.24875995639 1.85311996806 0.344178008073 9.18191038616 17.1548994873 -3.2276718463 -34.1097017528 -0.0624532820891 
1.95769 0.989769479321 0.0392908 -4.11760985011 -0.48626597981 -91.3734989051 0.513819016282 8.78625033415 -0.0433395012899 -0.571291536332 -6.47237733062 -5.20306906253 79.7394942578 -20.7131326392 9.62474911609 8.18582035704 41.0038010028 6.89960993208 -8.69147036035 9.56458027215 -0.594907022109 -73.6394454799 -10.8482502936 -2.20475987776 -4.07481999562 36.2078982997 -14.796600799 5.82328012125 9.61818957317 -0.917487998707 -0.556989973983 3.08975004984 -4.05542012394 -0.259507994914 10.5633998156 -8.23215977547 3.1034484211 -36.4995029811 -0.0564163086675 -0.989096022131 2.25689001594 1.8531299999 0.345110995906 9.17961031996 17.2059005099 -3.24328373776 -34.1407005663 -0.0624762472662 
1.95769 0.989769479321 0.039424 -4.12004011679 -0.488125979059 -91.387002189 0.592700017233 8.83930041343 -0.0288832991899 -0.614485332478 -6.77025468693 -5.30365768533 79.5957665871 -20.5697037893 9.63019363063 8.14127983969 40.8164011026 7.02959995793 -8.73681000984 9.56646028172 -0.609690006072 -73.7922436418 -10.9788725389 -2.28398046718 -4.06482999018 36.3734006135 -14.7711002878 5.82328012125 9.61818957317 -0.917487998707 -0.562174994698 3.09074000038 -4.05542994234 -0.265174010357 10.5633998156 -8.23270021418 3.04771855979 -36.4995029811 -0.0564163086675 -1.00142003127 2.25685992042 1.85043997258 0.343789994631 9.19231020295 17.2378999461 -3.2597835538 -34.166901172 -0.0624955238743 
1.95771 0.989769479321 0.0395518 -4.0961698863 -0.500940000911 -91.3840993586 0.61126399115 8.8436102628 -0.0342604990161 -0.505340990614 -6.87896525842 -5.01739250438 79.5704812268 -20.5652129399 9.680240988 8.12493007436 40.9261998086 7.03319989451 -8.62379001587 9.57510986253 -0.682026992107 -73.8787821386 -11.1185353932 -2.31916298503 -4.06466990762 36.4894011313 -14.7370996061 5.82328012125 9.61818957317 -0.917487998707 -0.576883006663 3.06249994293 -4.05531980554 -0.275910987691 10.5633998156 -8.23064005837 3.00869854283 -36.4995029811 -0.0564163086675 -1.0189999777 2.22340992273 1.83731000112 0.338981007847 9.21063986936 17.2261007943 -3.25752062675 -34.1592001337 -0.0624898342734 
1.95779 0.989759479321 0.0396999 -4.05799980101 -0.510696019006 -91.3839969058 0.58299101005 8.81642013348 -0.0421686007599 -0.172328047317 -6.56962513714 -4.00677722422 79.721954332 -20.8190927789 9.80787331793 8.17629992711 41.41910041 6.81140017338 -8.45349034797 9.58405997166 -0.713045015562 -73.8723276098 -11.144758197 -2.29470023564 -4.04788002198 36.4845004706 -14.7498003428 5.82328012125 9.61818957317 -0.917487998707 -0.594221975479 3.01427005621 -4.05556014282 -0.280012996535 10.5637003439 -8.21947013776 3.02686727291 -36.5023033586 -0.0564184030809 -1.03407004305 2.17122002039 1.82234996585 0.332640004296 9.22045997384 17.2194003788 -3.22794313288 -34.1393994153 -0.0624752067296 
1.9579 0.989719479321 0.0398625 -4.0423300664 -0.503295989288 -91.3842018115 0.57718001317 8.80105989181 -0.042824098817 0.122500016393 -5.96754993822 -2.87695507936 79.8897789101 -21.0956300629 9.9221534818 8.26226981065 41.8730006313 6.53854009245 -8.49275966683 9.58108969314 -0.691935995767 -73.8391670414 -11.0565616718 -2.25792265516 -4.01386994878 36.4111988804 -14.8053007525 5.82328012125 9.61818957317 -0.917487998707 -0.598867998219 2.98949994829 -4.05965014547 -0.271591986938 10.5654002073 -8.22588966181 3.07504273156 -36.5142015482 -0.0564270275288 -1.03381999409 2.14040007243 1.82654007346 0.324553006958 9.22559029968 17.2345002195 -3.1798933924 -34.1397989813 -0.0624755335648 
1.95797 0.989659479321 0.0400038 -4.05312005774 -0.488714015658 -91.3661974328 0.604603009244 8.75993020018 -0.0536493983677 0.244339185304 -5.50338052751 -2.2027594861 79.9113144966 -21.1764807197 9.91202601881 8.32735041438 42.0015003953 6.39647984168 -8.76717959221 9.57307019728 -0.738073976971 -73.8223169647 -10.9970707241 -2.21849432096 -3.99717013626 36.3323989879 -14.8408006607 5.82328012125 9.61818957317 -0.917487998707 -0.599117993815 2.99109992011 -4.07625988487 -0.252929001959 10.5807997225 -8.2474303709 3.08984823381 -36.5258026245 -0.0564355052343 -1.02655000477 2.14130998169 1.83593008946 0.32032501314 9.23053023399 17.2426998616 -3.14024094262 -34.1599002281 -0.062490434583 
1.95801 0.989649479321 0.0401188 -4.05958013603 -0.489967995701 -91.3385010157 0.619122017068 8.66361001873 -0.0865172991853 0.294021501079 -5.09423981651 -1.74565185067 79.8147970934 -21.1112097244 9.8133656438 8.37416026208 41.9198010875 6.35630979162 -9.01127006258 9.57411009359 -0.895894035481 -73.8132259829 -11.0480469872 -2.15328159576 -3.99793981321 36.2376984151 -14.8486007367 5.82328012125 9.61818957317 -0.917487998707 -0.619715016226 2.98012999597 -4.10911992497 -0.231379995251 10.6236002492 -8.24305990361 3.06456564826 -36.5324040023 -0.0564403210513 -1.03961999864 2.14432999252 1.81737993601 0.330045012659 9.23384031442 17.2386000405 -3.1376172962 -34.1768015312 -0.0625029610432 
1.95807 0.989639479321 0.0402265 -4.05129981232 -0.508400008228 -91.3249977318 0.6239740127 8.63385003074 -0.120591005201 0.312487317707 -4.84892418096 -1.37063327065 79.7209707848 -21.0128498778 9.78360224071 8.42805984614 41.73899915 6.34292005953 -9.06888014691 9.58000966948 -1.01278002324 -73.8302877955 -11.1250411484 -2.12500866802 -3.96431009617 36.1272986524 -14.898399646 5.82328012125 9.61818957317 -0.917487998707 -0.656493023586 2.95377997993 -4.14131999804 -0.219276993424 10.6573004025 -8.20890042002 3.05038083946 -36.545101324 -0.0564495858293 -1.07443998286 2.12937998909 1.77860996801 0.347836988436 9.24285957922 17.2389005689 -3.17033027379 -34.1847006449 -0.0625087573658 
1.95812 0.989619479321 0.0403199 -4.04619979545 -0.518973994837 -91.3151007877 0.671889017027 8.79133967885 -0.13320400338 0.203795022308 -5.32490853827 -1.58923102044 79.66772263 -20.8834314534 9.87482453972 8.46536975449 41.4312991279 6.3976098111 -9.04762972085 9.57527976348 -0.932813022214 -73.9069361783 -11.1438472205 -2.23766132588 -3.89241979383 36.0664997236 -14.9950997567 5.82328012125 9.61818957317 -0.917487998707 -0.675478975127 2.94679995348 -4.15159985962 -0.216694995154 10.6532996192 -8.19734032485 3.06740465908 -36.5606024383 -0.056460951691 -1.09307999599 2.10709009362 1.76522994759 0.351618992246 9.26562972236 17.2407003237 -3.19468459393 -34.1957997023 -0.0625170549785 
